<svg width="69" height="36" viewBox="0 0 69 36" fill="none" xmlns="http://www.w3.org/2000/svg">
<g clip-path="url(#clip0_197_999)">
<path d="M66.7311 30.1078H63.563C63.1474 33.4569 60.3151 36.0482 56.8826 36.0482C53.4502 36.0482 50.6178 33.4569 50.2022 30.1078H22.5436C22.128 33.4569 19.2956 36.0482 15.8632 36.0482C12.4307 36.0482 9.59837 33.4569 9.18268 30.1078H5.46729C4.75607 30.1078 4.16571 29.5547 4.11108 28.8392L3.85056 25.3858L3.85046 25.3854C3.61421 25.4708 3.35982 25.5177 3.09443 25.5177H2.24878C1.01174 25.5177 0.00905609 24.5062 0.00905609 23.2585V15.7046C0.00905609 14.4569 1.01174 13.4454 2.24878 13.4454H3.09443C3.36012 13.4454 3.6149 13.4923 3.85144 13.578V13.5779L5.08472 3.46172C5.18425 2.64782 5.65942 1.93032 6.36578 1.52582L8.5367 0.284818C8.92205 0.0644176 9.35826 -0.0507812 9.80111 -0.0507812H18.7929C19.2495 -0.0507812 19.7032 0.00431724 20.1461 0.114517L27.9476 2.05332C28.2549 2.13002 28.5692 2.18032 28.8853 2.20392L44.8327 3.38682C45.5751 3.44192 46.2465 3.84942 46.6425 4.48422L51.0731 11.5938C51.4713 12.2345 52.1503 12.6429 52.8977 12.6931L58.6317 13.0789C59.1527 13.1133 59.6522 12.8653 59.941 12.4274L60.4064 11.7237C60.6317 11.3822 61.0123 11.1765 61.4192 11.1765H61.865C62.2348 11.1765 62.5851 11.3468 62.8163 11.6381L63.6866 12.7364C63.8934 12.9962 64.1705 13.1911 64.4837 13.2954L65.5248 13.6428C66.2243 13.877 66.6965 14.5364 66.6965 15.2795L67.6722 21.2071V23.2689C67.6722 23.7639 67.9199 24.2245 68.3317 24.4942C68.7435 24.7638 68.9912 25.2245 68.9912 25.7195V27.8276C68.9917 29.0863 67.9799 30.1078 66.7311 30.1078ZM36.1494 18.8254H39.4666C39.9247 18.8254 40.2959 18.4508 40.2959 17.9889C40.2959 17.527 39.9247 17.1523 39.4666 17.1523H36.1494C35.6914 17.1523 35.32 17.5269 35.32 17.9889C35.32 18.4509 35.6914 18.8254 36.1494 18.8254ZM11.6531 30.1078C12.0453 32.0899 13.784 33.5878 15.8631 33.5878C17.9412 33.5878 19.6799 32.0899 20.0722 30.1078C20.1278 29.8322 20.1562 29.5488 20.1562 29.2575C20.1562 26.8699 18.2301 24.9272 15.8632 24.9272C13.4952 24.9272 11.5702 26.8699 11.5702 29.2575C11.5701 29.5488 11.5985 29.8322 11.6531 30.1078ZM5.72 23.8938H7.21668C7.55811 23.8938 7.81667 23.634 7.7553 23.3525L7.48495 22.1056C7.43815 21.8871 7.21074 21.7287 6.94544 21.7287H5.72C5.5697 21.7287 5.43319 21.7789 5.33455 21.8625C5.33445 21.8626 5.33435 21.8627 5.33425 21.8628V23.2584C5.33425 23.4155 5.31829 23.5688 5.28805 23.7169C5.38848 23.8251 5.54452 23.8938 5.72 23.8938ZM5.72 18.3992C5.5697 18.3992 5.43319 18.4494 5.33455 18.5331C5.33445 18.5332 5.33435 18.5333 5.33425 18.5334V20.4313C5.33435 20.4314 5.33445 20.4315 5.33455 20.4316C5.43319 20.5142 5.5697 20.5644 5.72 20.5644H7.21668C7.55811 20.5644 7.81667 20.3046 7.7553 20.0231L7.48495 18.7762C7.43815 18.5577 7.21074 18.3992 6.94544 18.3992H5.72ZM26.1204 4.13382L19.5628 2.50302C19.3111 2.44102 19.0526 2.40952 18.793 2.40952H9.9397C9.82748 2.40952 9.71724 2.43912 9.61869 2.49412L7.85077 3.50582C7.79317 3.53832 7.73854 3.57672 7.69076 3.62292C7.24097 4.05592 7.54543 4.62082 7.99521 4.62082H26.0618C26.1974 4.62082 26.3068 4.50962 26.3068 4.37382C26.3068 4.25982 26.2306 4.16042 26.1204 4.13382ZM31.1247 7.85202C31.1247 7.28122 30.6661 6.81862 30.1002 6.81862H8.89489C8.38264 6.81862 7.94842 7.20042 7.88011 7.71322L7.08493 13.63C7.00205 14.25 7.48009 14.8022 8.10069 14.8022H30.1002C30.6661 14.8022 31.1247 14.3396 31.1247 13.7688V7.85202ZM50.0576 14.1122C49.6772 13.7914 49.3445 13.4105 49.0752 12.9775L45.389 7.06372C44.9109 6.29602 44.1003 5.80492 43.2054 5.73802L34.1297 5.06482C33.8799 5.04612 33.6779 5.26762 33.7169 5.51752L34.4117 9.95602C34.556 10.8811 34.9561 11.7472 35.5659 12.4538C36.003 12.9597 36.5308 13.3671 37.1162 13.6574C37.7026 13.9477 38.3446 14.1219 39.009 14.1613L49.7805 14.801C50.1523 14.8238 50.3426 14.3534 50.0576 14.1122ZM56.8826 24.9272C54.5156 24.9272 52.5896 26.8699 52.5896 29.2575C52.5896 29.5488 52.618 29.8322 52.6735 30.1078C53.0658 32.0899 54.8045 33.5878 56.8826 33.5878C58.9607 33.5878 60.6994 32.0899 61.0917 30.1078C61.1473 29.8322 61.1756 29.5488 61.1756 29.2575C61.1756 26.8699 59.2495 24.9272 56.8826 24.9272ZM64.0294 17.7428C63.2078 17.7428 62.5415 19.1196 62.5415 20.8183C62.5415 22.517 63.2079 23.8938 64.0294 23.8938C64.8509 23.8938 65.5172 22.517 65.5172 20.8183C65.5173 19.1197 64.8509 17.7428 64.0294 17.7428Z" fill="#040813"/>
<path d="M53.1374 26.7988C51.791 26.7988 50.6982 27.9001 50.6982 29.2592C50.6982 29.5574 50.7509 29.8438 50.8485 30.1095C51.191 31.0494 52.0867 31.7196 53.1374 31.7196C54.1883 31.7196 55.0839 31.0494 55.4263 30.1095C55.5239 29.8438 55.5766 29.5574 55.5766 29.2592C55.5766 27.9001 54.4848 26.7988 53.1374 26.7988Z" fill="#040813"/>
<path d="M12.1179 31.7196C13.1688 31.7196 14.0644 31.0494 14.4068 30.1095C14.5043 29.8438 14.5571 29.5574 14.5571 29.2592C14.5571 27.9001 13.4653 26.7988 12.1179 26.7988C10.7705 26.7988 9.67871 27.9001 9.67871 29.2592C9.67871 29.5574 9.73135 29.8438 9.829 30.1095C10.1714 31.0494 11.0671 31.7196 12.1179 31.7196Z" fill="#040813"/>
</g>
<defs>
<clipPath id="clip0_197_999">
<rect width="69" height="36" fill="white"/>
</clipPath>
</defs>
</svg>
