<svg width="92" height="34" viewBox="0 0 92 34" fill="none" xmlns="http://www.w3.org/2000/svg">
<path d="M91.0962 25.8128V26.4088C91.0962 27.1132 90.5245 27.6849 89.8202 27.6849H83.7356C82.7683 31.1687 79.5742 33.7247 75.7829 33.7247C71.9915 33.7247 68.7975 31.1687 67.8301 27.6849H22.9928C22.0255 31.1687 18.8314 33.7247 15.04 33.7247C11.2487 33.7247 8.05467 31.1687 7.08727 27.6849H1.51321C0.808876 27.6849 0.23719 27.1132 0.23719 26.4088V25.8128C0.23719 25.1084 0.808876 24.5367 1.51321 24.5367H1.52477V17.0319C1.52477 16.6772 1.57455 16.3263 1.67147 15.9893L2.47418 13.2201C2.80344 12.087 3.64056 11.232 4.67677 10.9704L9.13042 9.84749C10.4308 9.51942 11.6648 8.92225 12.7699 8.08644L19.615 2.91309C21.1158 1.77863 22.8487 1.08953 24.6518 0.907104C28.8489 0.485918 33.0575 0.275391 37.2661 0.275391C42.234 0.275391 47.2018 0.568919 52.1481 1.15598L55.5081 1.55418C56.9973 1.73161 58.4407 2.23948 59.7538 3.04849L68.2347 8.28187C69.5159 9.0717 70.9222 9.57576 72.3745 9.76343L83.1576 11.1582C85.9867 11.5245 88.2569 13.9439 88.7252 17.0921L88.7317 17.1354L89.5574 18.2227C90.0257 18.8391 90.2822 19.6213 90.2822 20.4305V23.5557C90.2822 23.913 90.2337 24.2562 90.1431 24.5791C90.6904 24.7231 91.0962 25.2194 91.0962 25.8128ZM6.35232 15.0298H4.57985C4.41778 15.0298 4.26597 15.1101 4.17535 15.2442L3.95839 15.5632C3.48743 16.2548 3.23605 17.0728 3.23605 17.9087V18.3681C3.23605 18.6387 3.45551 18.8581 3.72605 18.8581H5.25989C5.4628 18.8581 5.64522 18.7331 5.7168 18.5443L6.8091 15.6947C6.93295 15.3743 6.69563 15.0298 6.35232 15.0298ZM45.9538 17.6777H49.144C49.7425 17.6777 50.2287 17.1915 50.2287 16.593C50.2287 15.9945 49.7425 15.5084 49.144 15.5084H45.9538C45.3553 15.5084 44.8691 15.9945 44.8691 16.593C44.8691 17.1915 45.3553 17.6777 45.9538 17.6777ZM22.0485 17.6777H25.2387C25.8372 17.6777 26.3234 17.1915 26.3234 16.593C26.3234 15.9945 25.8372 15.5084 25.2387 15.5084H22.0485C21.4487 15.5084 20.9638 15.9945 20.9638 16.593C20.9638 17.1915 21.4487 17.6777 22.0485 17.6777ZM19.9709 24.3325C19.8433 23.7787 19.6251 23.2606 19.3316 22.7922C18.922 22.9619 18.4396 22.902 18.081 22.6097C18.0491 22.5829 18.0172 22.5548 17.9879 22.5255C17.9573 22.4949 17.9292 22.4628 17.9037 22.4309C17.6115 22.0737 17.5503 21.5913 17.72 21.1817C17.2517 20.8882 16.7336 20.67 16.1797 20.5424C15.9947 20.9889 15.5545 21.3041 15.0401 21.3041C14.5258 21.3041 14.0856 20.9889 13.9006 20.5424C13.3467 20.67 12.8286 20.8882 12.3603 21.1817C12.544 21.6284 12.456 22.1617 12.0924 22.5255C11.7287 22.8878 11.1952 22.9771 10.7486 22.7921C10.455 23.2604 10.2369 23.7785 10.1092 24.3324C10.5559 24.5174 10.8711 24.9577 10.8711 25.472C10.8711 25.9876 10.5559 26.4278 10.1081 26.6128C10.1949 26.9881 10.3224 27.3466 10.4871 27.6848C10.5662 27.8457 10.6556 28.0013 10.75 28.1518C11.1967 27.9681 11.73 28.0574 12.0925 28.4199C12.4562 28.7835 12.5455 29.317 12.3604 29.7637C12.8288 30.0572 13.3469 30.2753 13.9007 30.403C14.0858 29.9565 14.526 29.6413 15.0403 29.6413C15.5546 29.6413 15.9948 29.9565 16.1799 30.403C16.7337 30.2753 17.2518 30.0572 17.7201 29.7637C17.5351 29.317 17.6244 28.7837 17.9882 28.4199C18.3505 28.0574 18.8827 27.9682 19.3294 28.1518C19.4238 28.0013 19.5131 27.8455 19.5922 27.6848C19.7569 27.3466 19.8857 26.9881 19.9725 26.6128C19.5245 26.4278 19.2093 25.9876 19.2093 25.472C19.2091 24.9578 19.5243 24.5176 19.9709 24.3325ZM40.8532 11.1758L39.4277 4.64091C39.2962 4.0373 38.7513 3.61493 38.135 3.6366L26.0221 4.08077C25.6279 4.0947 25.2629 4.2913 25.0319 4.61149L20.7148 10.6297C20.0143 11.6072 20.7123 12.9663 21.9144 12.9663H39.41C40.3518 12.9663 41.0536 12.0959 40.8532 11.1758ZM66.5592 10.996L58.0782 5.76394C57.1569 5.19488 56.1653 4.84513 55.1316 4.7226L51.7729 4.32308C48.8404 3.97479 45.8772 3.73484 42.9154 3.59825C42.4854 3.57908 42.1638 3.98622 42.2774 4.39965L43.9784 10.5543C44.3727 11.9797 45.6705 12.9661 47.1496 12.9661H63.7083C64.8198 12.9661 65.8587 12.4085 66.4724 11.4806L66.7264 11.0966C66.6702 11.0635 66.6141 11.0304 66.5592 10.996ZM80.7138 24.3325C80.6819 24.1946 80.6448 24.0581 80.6015 23.9242C80.5147 23.6561 80.4075 23.3985 80.2798 23.1522C80.216 23.0297 80.1472 22.9098 80.0744 22.7924C79.6648 22.962 79.1824 22.9022 78.8239 22.6098C78.792 22.583 78.7601 22.5549 78.7306 22.5256C78.7 22.495 78.6719 22.463 78.6465 22.4311C78.3545 22.0742 78.2932 21.5925 78.4622 21.1831C78.4522 21.177 78.4428 21.1701 78.4326 21.164C78.4052 21.147 78.3775 21.1309 78.3498 21.1144C78.2686 21.0666 78.1868 21.0195 78.1027 20.9763C78.0104 20.9285 77.9165 20.8834 77.821 20.8415C77.8208 20.8414 77.8205 20.8413 77.8202 20.8411C77.8173 20.8398 77.8145 20.8388 77.8116 20.8375C77.7191 20.7969 77.6252 20.7588 77.53 20.7237C77.5293 20.7235 77.5287 20.7232 77.528 20.7231C77.5268 20.7227 77.5257 20.7223 77.5245 20.7219C77.4277 20.6863 77.3296 20.6535 77.2302 20.6239C77.2295 20.6237 77.2288 20.6235 77.2282 20.6234C77.1278 20.5934 77.0262 20.5665 76.9235 20.5427C76.9232 20.5427 76.9228 20.5426 76.9226 20.5426C76.7375 20.9892 76.2973 21.3044 75.783 21.3044C75.2687 21.3044 74.8285 20.9892 74.6434 20.5426H74.6433C74.6429 20.5426 74.6426 20.5427 74.6424 20.5427C74.5395 20.5667 74.438 20.5934 74.3377 20.6234C74.337 20.6235 74.3364 20.6238 74.3357 20.6239C74.2363 20.6535 74.1382 20.6863 74.0414 20.7219C74.0402 20.7223 74.039 20.7227 74.0378 20.7231C74.0372 20.7233 74.0365 20.7236 74.0359 20.7237C73.9406 20.7589 73.8469 20.797 73.7543 20.8375C73.7514 20.8388 73.7485 20.8398 73.7456 20.8411C73.7454 20.8411 73.7451 20.8414 73.7448 20.8415C73.6493 20.8836 73.5554 20.9286 73.4631 20.9763C73.3787 21.0198 73.2966 21.067 73.215 21.1151C73.1877 21.1313 73.1603 21.1473 73.1332 21.164C73.1308 21.1654 73.1286 21.167 73.1262 21.1684C73.1186 21.1732 73.1113 21.1784 73.1037 21.1831C73.2866 21.6295 73.1985 22.1622 72.8352 22.5256C72.4716 22.888 71.9381 22.9773 71.4915 22.7922C71.4188 22.9096 71.3498 23.0296 71.286 23.1521C71.1584 23.3983 71.0512 23.6561 70.9645 23.9241C70.9212 24.058 70.8841 24.1945 70.8522 24.3324C71.2989 24.5174 71.6141 24.9577 71.6141 25.472C71.6141 25.9876 71.2989 26.4278 70.8509 26.6128C70.8726 26.7098 70.898 26.8055 70.9262 26.8999C70.9516 26.9881 70.9811 27.0761 71.0117 27.1629C71.027 27.2088 71.0449 27.2547 71.0614 27.3008C71.0958 27.3875 71.1317 27.4729 71.1699 27.5573C71.1891 27.6006 71.2094 27.6428 71.2299 27.6849C71.309 27.8458 71.3984 28.0014 71.4929 28.1519C71.9395 27.9682 72.4729 28.0575 72.8353 28.42C73.199 28.7837 73.2883 29.3171 73.1033 29.7638C73.5716 30.0573 74.0897 30.2755 74.6435 30.4031C74.8286 29.9566 75.2688 29.6414 75.7831 29.6414C76.2974 29.6414 76.7377 29.9566 76.9227 30.4031C77.4765 30.2755 77.9946 30.0573 78.463 29.7638C78.2779 29.3171 78.3672 28.7838 78.7309 28.42C79.0934 28.0575 79.6254 27.9683 80.0721 28.1519C80.1665 28.0014 80.2558 27.8457 80.3349 27.6849C80.3554 27.6428 80.3757 27.6006 80.3949 27.5573C80.4332 27.4729 80.4688 27.3875 80.5034 27.3008C80.5902 27.0787 80.6603 26.849 80.7152 26.6128C80.2672 26.4278 79.952 25.9876 79.952 25.472C79.9519 24.9578 80.2671 24.5176 80.7138 24.3325ZM86.0912 16.344C85.73 15.4176 85.157 14.3023 84.3556 13.7497C84.228 13.6617 84.0748 13.6183 83.9192 13.6183H82.1467C81.5648 13.6183 81.1846 14.2271 81.4398 14.7503L82.1429 16.1922C82.2374 16.3875 82.4084 16.5343 82.6151 16.598L85.1239 17.3854C85.7557 17.5832 86.3325 16.9617 86.0912 16.344Z" fill="#040813"/>
</svg>
