<svg width="21" height="21" viewBox="0 0 21 21" fill="none" xmlns="http://www.w3.org/2000/svg">
<path d="M19.8047 3.4454C19.5082 3.14852 19.1563 3.00006 18.7501 3.00006H17.2503V1.87502C17.2503 1.35949 17.0665 0.918053 16.6994 0.550864C16.332 0.183676 15.8908 0 15.3751 0H14.6253C14.1095 0 13.6682 0.183676 13.301 0.550905C12.9337 0.918053 12.7501 1.35953 12.7501 1.87506V3.0001H8.25033V1.87506C8.25033 1.35953 8.06665 0.918094 7.69942 0.550905C7.33227 0.183676 6.89088 0 6.37515 0H5.62521C5.10961 0 4.66817 0.183676 4.30094 0.550905C3.93379 0.918053 3.75007 1.35953 3.75007 1.87506V3.0001H2.25021C1.84386 3.0001 1.49235 3.14856 1.19548 3.44544C0.898597 3.74227 0.750137 4.09395 0.750137 4.50017V19.5002C0.750137 19.9061 0.898597 20.2577 1.19548 20.5547C1.49231 20.8515 1.84382 21 2.25021 21H18.7498C19.1561 21 19.5079 20.8516 19.8044 20.5547C20.1014 20.2578 20.2499 19.9061 20.2499 19.5002V4.50013C20.2498 4.09378 20.1015 3.74227 19.8047 3.4454ZM5.62509 19.5H2.25021V16.1248H5.62509V19.5ZM5.62509 15.375H2.25021V11.6252H5.62509V15.375ZM5.62509 10.8749H2.25021V7.50006H5.62509V10.8749ZM5.36158 5.51369C5.28733 5.43944 5.25027 5.35173 5.25027 5.25006V1.87518C5.25027 1.77363 5.28733 1.68568 5.36158 1.61155C5.43583 1.5373 5.52354 1.50023 5.62521 1.50023H6.37515C6.47669 1.50023 6.56465 1.5373 6.63878 1.61155C6.71303 1.68572 6.75017 1.77363 6.75017 1.87518V5.25006C6.75017 5.35177 6.71286 5.43948 6.63878 5.51369C6.56461 5.58794 6.47681 5.62501 6.37515 5.62501H5.62521C5.52367 5.62505 5.43583 5.58794 5.36158 5.51369ZM10.1251 19.5H6.37502V16.1248H10.1251V19.5ZM10.1251 15.375H6.37502V11.6252H10.1251V15.375ZM10.1251 10.8749H6.37502V7.50006H10.1251V10.8749ZM14.6253 19.5H10.8752V16.1248H14.6253V19.5ZM14.6253 15.375H10.8752V11.6252H14.6253V15.375ZM14.6253 10.8749H10.8752V7.50006H14.6253V10.8749ZM14.3615 5.51369C14.2873 5.43944 14.2504 5.35173 14.2504 5.25006V1.87518C14.2504 1.77363 14.2873 1.68568 14.3615 1.61155C14.4357 1.5373 14.5236 1.50023 14.6253 1.50023H15.3751C15.4768 1.50023 15.5646 1.5373 15.6389 1.61155C15.7131 1.68572 15.75 1.77363 15.75 1.87518V5.25006C15.75 5.35177 15.7129 5.43948 15.6389 5.51369C15.5647 5.58794 15.4768 5.62501 15.3751 5.62501H14.6253C14.5236 5.62505 14.4354 5.58794 14.3615 5.51369ZM18.7498 19.5H15.3748V16.1248H18.7498V19.5ZM18.7498 15.375H15.3748V11.6252H18.7498V15.375ZM18.7498 10.8749H15.3748V7.50006H18.7498V10.8749Z" fill="#F9A545"/>
</svg>
