<svg width="34" height="30" viewBox="0 0 34 30" fill="none" xmlns="http://www.w3.org/2000/svg">
<path d="M11.5 30C12.8807 30 14 28.8807 14 27.5C14 26.1193 12.8807 25 11.5 25C10.1193 25 9 26.1193 9 27.5C9 28.8807 10.1193 30 11.5 30Z" fill="#F9A545"/>
<path d="M28.5 30C29.8807 30 31 28.8807 31 27.5C31 26.1193 29.8807 25 28.5 25C27.1193 25 26 26.1193 26 27.5C26 28.8807 27.1193 30 28.5 30Z" fill="#F9A545"/>
<path d="M10.6 18.9474H31.0022L34 3.78947H7.95431L7.29308 0H0V2.52632H5.19774L8.94499 24H31.227V21.4737H11.0403L10.6 18.9474Z" fill="#F9A545"/>
</svg>
