<svg width="22" height="30" viewBox="0 0 22 30" fill="none" xmlns="http://www.w3.org/2000/svg">
<path d="M5.77854 1.19107C3.75152 2.14696 2.12772 3.77843 1.1908 5.8005C0.259671 7.64906 -0.137807 9.7168 0.0422831 11.7753C0.222373 13.8337 0.973021 15.8028 2.21128 17.4648L11.0229 30L19.8257 17.4648C21.2506 15.5731 22.0139 13.2722 21.9998 10.9113C21.9998 3.2055 14.0134 -2.60027 5.77854 1.19107ZM11.1738 14.5619C10.3819 14.5637 9.60726 14.3325 8.94795 13.8976C8.28865 13.4627 7.77431 12.8437 7.47004 12.119C7.16577 11.3942 7.08525 10.5962 7.23867 9.82609C7.39209 9.05593 7.77255 8.34821 8.33189 7.7925C8.89124 7.23678 9.60432 6.85806 10.3809 6.70427C11.1575 6.55048 11.9626 6.62853 12.6944 6.92854C13.4262 7.22855 14.0518 7.73704 14.4919 8.38965C14.9321 9.04225 15.167 9.80963 15.167 10.5947C15.167 11.6453 14.7466 12.6531 13.998 13.3968C13.2493 14.1406 12.2337 14.5596 11.1738 14.5619Z" fill="#9696A1"/>
</svg>
