<svg width="27" height="27" viewBox="0 0 27 27" fill="none" xmlns="http://www.w3.org/2000/svg">
<path d="M26.631 13.085C26.631 14.9202 26.594 16.7606 26.6415 18.5958C26.7206 21.8442 24.6798 24.3544 22.08 25.4723C21.0358 25.9206 19.939 26.1579 18.8052 26.1579C15.2561 26.1631 11.7019 26.2106 8.15283 26.142C5.4792 26.0893 3.28018 24.9713 1.70342 22.767C0.875488 21.6069 0.47998 20.2885 0.47998 18.8594C0.47998 15.0784 0.47998 11.3026 0.47998 7.52154C0.47998 4.43658 1.98291 2.27974 4.65127 0.877005C5.81142 0.27056 7.07178 0.0121612 8.38486 0.00688776C11.8284 0.00688776 15.2772 -0.014206 18.7208 0.0174346C21.3944 0.0385284 23.6251 1.06158 25.2704 3.21314C26.188 4.41548 26.631 5.79712 26.631 7.31587C26.631 9.2354 26.631 11.1602 26.631 13.085ZM2.42588 13.085C2.42588 15.0204 2.42588 16.9504 2.42588 18.8858C2.42588 19.7506 2.62627 20.5627 3.07451 21.2958C4.25049 23.2206 6.02764 24.1592 8.23193 24.1961C11.7704 24.2489 15.3142 24.2172 18.8579 24.2067C19.728 24.2067 20.5718 24.0274 21.3575 23.653C23.4985 22.6299 24.6956 21.0004 24.6851 18.5536C24.664 14.8094 24.6798 11.0653 24.6798 7.32115C24.6798 6.26119 24.3792 5.29087 23.7517 4.43658C22.5388 2.79654 20.8618 1.9897 18.8579 1.96861C15.3247 1.92642 11.7915 1.95279 8.2583 1.95806C7.5042 1.95806 6.77646 2.11099 6.06982 2.37466C4.1292 3.09712 2.32568 4.92701 2.41006 7.62173C2.47334 9.44634 2.42588 11.2657 2.42588 13.085Z" fill="white"/>
<path d="M13.5845 18.6758C10.1831 18.6758 7.44092 15.9652 7.43565 12.5902C7.43037 9.26798 10.1937 6.54688 13.5739 6.54688C16.9647 6.54161 19.7175 9.25743 19.7228 12.6061C19.7228 15.9494 16.9753 18.6705 13.5845 18.6758ZM13.5845 16.7246C15.8995 16.7246 17.7769 14.8736 17.7716 12.5955C17.7663 10.3385 15.889 8.49278 13.5845 8.49278C11.2694 8.49278 9.38154 10.3332 9.38154 12.6061C9.38682 14.8842 11.2694 16.7299 13.5845 16.7246Z" fill="white"/>
<path d="M20.4347 4.70117C21.1466 4.70117 21.7267 5.30762 21.7267 6.05117C21.7214 6.79472 21.136 7.3959 20.4241 7.39062C19.7228 7.38535 19.148 6.78418 19.148 6.05644C19.1427 5.31289 19.7228 4.70117 20.4347 4.70117Z" fill="white"/>
</svg>
