<svg width="22" height="17" viewBox="0 0 22 17" fill="none" xmlns="http://www.w3.org/2000/svg">
<path d="M22 13.7499C22 14.2103 21.8643 14.6371 21.647 15.0126L14.7007 7.59392L21.5717 1.85567C21.839 2.26056 22 2.73616 22 3.25011V13.7499ZM11 8.94093L20.5608 0.955747C20.1684 0.750729 19.7266 0.625 19.2501 0.625H2.74998C2.27281 0.625 1.83087 0.750729 1.44012 0.955747L11 8.94093ZM13.6655 8.45784L11.4524 10.3074C11.323 10.415 11.1618 10.4688 11 10.4688C10.8382 10.4688 10.677 10.415 10.5475 10.3074L8.33397 8.45775L1.29979 15.9712C1.72142 16.2237 2.21555 16.375 2.74994 16.375H19.2501C19.7844 16.375 20.2787 16.2237 20.7002 15.9712L13.6655 8.45784ZM0.428383 1.85563C0.161142 2.26051 0 2.73612 0 3.25011V13.75C0 14.2103 0.135026 14.6371 0.353162 15.0126L7.29865 7.59267L0.428383 1.85563Z" fill="#9696A1"/>
</svg>
