<svg width="22" height="22" viewBox="0 0 22 22" fill="none" xmlns="http://www.w3.org/2000/svg">
<path d="M21.901 17.535L21.7915 17.2051C21.5322 16.4342 20.6821 15.6303 19.9011 15.4185L17.0108 14.6289C16.227 14.4156 15.1089 14.7024 14.5354 15.2758L13.4894 16.3219C9.68777 15.2946 6.7067 12.3135 5.68083 8.51257L6.72694 7.46646C7.30041 6.89299 7.5871 5.77638 7.37386 4.99257L6.58572 2.10082C6.37248 1.31844 5.56704 0.46837 4.79766 0.21188L4.46772 0.100948C3.69687 -0.155543 2.5975 0.103852 2.02408 0.677279L0.459314 2.24347C0.17977 2.52154 0.00110753 3.31688 0.00110753 3.31978C-0.0536209 8.28776 1.89438 13.0742 5.40853 16.5884C8.91405 20.0939 13.6825 22.039 18.6361 21.9973C18.662 21.9973 19.4804 21.8215 19.7599 21.5433L21.3247 19.9786C21.8981 19.4052 22.1575 18.3059 21.901 17.535Z" fill="#9696A1"/>
</svg>
