<svg width="26" height="23" viewBox="0 0 26 23" fill="none" xmlns="http://www.w3.org/2000/svg">
<path fill-rule="evenodd" clip-rule="evenodd" d="M26 3.26212C25.0447 3.69722 24.0161 3.99134 22.9371 4.12277C24.0388 3.44677 24.8844 2.37467 25.2828 1.09783C24.2511 1.72386 23.1112 2.17927 21.8932 2.42342C20.9227 1.36088 19.5353 0.697266 18.0001 0.697266C15.0562 0.697266 12.6679 3.14634 12.6679 6.16681C12.6679 6.59561 12.7136 7.01181 12.8052 7.41258C8.37221 7.18386 4.44256 5.00859 1.80985 1.69562C1.35059 2.5063 1.08795 3.44677 1.08795 4.44837C1.08795 6.34516 2.02963 8.01952 3.46106 9.00081C2.58823 8.9742 1.76395 8.72537 1.04367 8.31851V8.38575C1.04367 11.0367 2.88256 13.248 5.32432 13.7489C4.87724 13.8772 4.40559 13.9414 3.9187 13.9414C3.57542 13.9414 3.23965 13.9085 2.91445 13.8443C3.59349 16.0165 5.56218 17.5987 7.8971 17.6409C6.07182 19.1089 3.77062 19.9836 1.27238 19.9836C0.841963 19.9836 0.416213 19.9586 -0.000396729 19.9084C2.36052 21.4577 5.16548 22.3638 8.1764 22.3638C17.9892 22.3638 23.3533 14.0304 23.3533 6.80198C23.3533 6.56412 23.3486 6.32626 23.3395 6.09308C24.3823 5.32161 25.2872 4.3592 26 3.26212Z" fill="white"/>
</svg>
